<svg width="26" height="24" viewBox="0 0 26 24" fill="none" xmlns="http://www.w3.org/2000/svg">
<path d="M25.9459 0V4.08889C24.6647 4.32593 23.6163 4.91852 22.801 5.86667C22.0439 6.75556 21.4615 7.88148 21.0538 9.24445C20.7043 10.6074 20.5296 12.0889 20.5296 13.6889H25.1597V24H15.4627V14.6667C15.4627 11.2296 15.9578 8.5037 16.9479 6.48889C17.9962 4.47408 19.3066 2.96297 20.8791 1.95556C22.5098 0.948148 24.1987 0.296296 25.9459 0ZM10.4832 0V4.08889C9.20193 4.32593 8.15361 4.91852 7.33825 5.86667C6.58113 6.75556 5.99873 7.88148 5.59105 9.24445C5.24161 10.6074 5.06688 12.0889 5.06688 13.6889H9.69697V24H0V14.6667C0 11.2296 0.495041 8.5037 1.48512 6.48889C2.53344 4.47408 3.84384 2.96297 5.41632 1.95556C7.04705 0.948148 8.73601 0.296296 10.4832 0Z" fill="#515165"/>
</svg>
