<svg width="116" height="121" viewBox="0 0 116 121" fill="none" xmlns="http://www.w3.org/2000/svg">
            <path fill-rule="evenodd" clip-rule="evenodd" d="M13 26.4745L18.9904 32.5407C20.8952 34.4697 23.1081 36.6997 25.5 39.1032V49.0192C23.599 47.1144 21.7483 45.2575 20 43.5V91.7364L29 83.0176V11H36V42.25H79V11H86V42.988C89.9236 39.1023 93.586 35.4642 96.5251 32.5251L102.5 26.5503V109.45L79 85.9497V64.4204L86 57.4204V83.0502L95.5 92.5502V43.4258C82.871 55.967 70.1827 68.4485 57.4854 80.9204C50.3166 73.7937 43.1535 66.6613 36 59.5192V85.9824L13 108.264V26.4745ZM79 49.019H36L57.5147 71.0781L79 49.019Z" fill="white"></path>
          </svg>